<svg width="324" height="236" viewBox="0 0 324 236" fill="none" xmlns="http://www.w3.org/2000/svg">
<path d="M226.913 39.9721C260.202 49.8662 287.897 83.1869 287.897 117.825C287.897 152.351 260.379 185.569 227.234 195.581C215.492 212.221 200.074 226.081 182.162 235.981H206.503C271.393 235.981 323.998 183.358 323.998 118.443C323.998 53.5288 271.393 0.905273 206.503 0.905273H183.73C200.813 10.6473 215.558 24.0197 226.913 39.9721Z" fill="white"/>
<path d="M117.976 188.045V47.9611C131.051 48.1222 143.263 51.8654 153.677 58.2547V177.751C143.263 184.141 131.051 187.884 117.976 188.045Z" fill="white"/>
<path d="M230.906 88.9487C217.844 38.3096 171.94 0.905273 117.315 0.905273C52.5237 0.905273 0 53.5288 0 118.443C0 183.358 52.5237 235.981 117.315 235.981C172.885 235.981 219.431 197.271 231.554 145.297H194.962C183.852 177.551 153.284 200.72 117.315 200.72C71.9611 200.72 35.1945 163.883 35.1945 118.443C35.1945 73.0032 71.9611 36.1667 117.315 36.1667C152.294 36.1667 182.166 58.0781 194.001 88.9487H230.906Z" fill="white"/>
</svg>
